<svg width="29" height="29" viewBox="0 0 29 29" fill="none" xmlns="http://www.w3.org/2000/svg">
<g clip-path="url(#clip0_22_100)">
<path d="M21.7607 24.1667C23.0953 24.1667 24.1773 23.0847 24.1773 21.75C24.1773 20.4153 23.0953 19.3333 21.7607 19.3333C20.426 19.3333 19.344 20.4153 19.344 21.75C19.344 23.0847 20.426 24.1667 21.7607 24.1667Z" fill="#34A853"/>
<path d="M14.5105 19.3333C16.5125 19.3333 18.1355 17.7104 18.1355 15.7083C18.1355 13.7063 16.5125 12.0833 14.5105 12.0833C12.5085 12.0833 10.8855 13.7063 10.8855 15.7083C10.8855 17.7104 12.5085 19.3333 14.5105 19.3333Z" fill="#4285F4"/>
<path d="M3.625 20.4208C3.625 23.1562 5.8438 25.375 8.57917 25.375H14.5V22.9583L8.44323 22.9432C7.11406 22.9432 6.04167 21.7062 6.04167 20.2396V17.5208H3.625V20.4208Z" fill="#EA4335"/>
<path d="M25.3749 10.9958C25.3749 8.26047 23.1561 6.04166 20.4208 6.04166H17.5208L20.5416 8.45833C21.8708 8.45833 22.9583 9.71047 22.9583 11.1771V15.7083H25.3749V10.9958Z" fill="#FBBC05"/>
<path d="M16.9167 3.625H12.0833L10.2708 6.04167H8.57917C5.8438 6.04167 3.625 8.26047 3.625 10.9958V13.8958H6.04167V11.1771C6.04167 9.71047 7.12917 8.45833 8.45833 8.45833H20.5417L16.9167 3.625Z" fill="#4285F4"/>
</g>
<defs>
<clipPath id="clip0_22_100">
<rect width="29" height="29" fill="white"/>
</clipPath>
</defs>
</svg>
