<svg width="32" height="32" viewBox="0 0 32 32" fill="none" xmlns="http://www.w3.org/2000/svg">
<path d="M7.99992 10.6667C9.46659 10.6667 10.6666 9.46668 10.6666 8.00001C10.6666 6.53334 9.46659 5.33334 7.99992 5.33334C6.53325 5.33334 5.33325 6.53334 5.33325 8.00001C5.33325 9.46668 6.53325 10.6667 7.99992 10.6667ZM15.9999 26.6667C17.4666 26.6667 18.6666 25.4667 18.6666 24C18.6666 22.5333 17.4666 21.3333 15.9999 21.3333C14.5333 21.3333 13.3333 22.5333 13.3333 24C13.3333 25.4667 14.5333 26.6667 15.9999 26.6667ZM7.99992 26.6667C9.46659 26.6667 10.6666 25.4667 10.6666 24C10.6666 22.5333 9.46659 21.3333 7.99992 21.3333C6.53325 21.3333 5.33325 22.5333 5.33325 24C5.33325 25.4667 6.53325 26.6667 7.99992 26.6667ZM7.99992 18.6667C9.46659 18.6667 10.6666 17.4667 10.6666 16C10.6666 14.5333 9.46659 13.3333 7.99992 13.3333C6.53325 13.3333 5.33325 14.5333 5.33325 16C5.33325 17.4667 6.53325 18.6667 7.99992 18.6667ZM15.9999 18.6667C17.4666 18.6667 18.6666 17.4667 18.6666 16C18.6666 14.5333 17.4666 13.3333 15.9999 13.3333C14.5333 13.3333 13.3333 14.5333 13.3333 16C13.3333 17.4667 14.5333 18.6667 15.9999 18.6667ZM21.3333 8.00001C21.3333 9.46668 22.5333 10.6667 23.9999 10.6667C25.4666 10.6667 26.6666 9.46668 26.6666 8.00001C26.6666 6.53334 25.4666 5.33334 23.9999 5.33334C22.5333 5.33334 21.3333 6.53334 21.3333 8.00001ZM15.9999 10.6667C17.4666 10.6667 18.6666 9.46668 18.6666 8.00001C18.6666 6.53334 17.4666 5.33334 15.9999 5.33334C14.5333 5.33334 13.3333 6.53334 13.3333 8.00001C13.3333 9.46668 14.5333 10.6667 15.9999 10.6667ZM23.9999 18.6667C25.4666 18.6667 26.6666 17.4667 26.6666 16C26.6666 14.5333 25.4666 13.3333 23.9999 13.3333C22.5333 13.3333 21.3333 14.5333 21.3333 16C21.3333 17.4667 22.5333 18.6667 23.9999 18.6667ZM23.9999 26.6667C25.4666 26.6667 26.6666 25.4667 26.6666 24C26.6666 22.5333 25.4666 21.3333 23.9999 21.3333C22.5333 21.3333 21.3333 22.5333 21.3333 24C21.3333 25.4667 22.5333 26.6667 23.9999 26.6667Z" fill="#5F6368"/>
</svg>
