<svg width="27" height="27" viewBox="0 0 27 27" fill="none" xmlns="http://www.w3.org/2000/svg">
<path d="M13.5 16.875C15.3675 16.875 16.875 15.4012 16.875 13.5337V5.63625C16.875 3.76875 15.3675 2.25 13.5 2.25C11.6325 2.25 10.125 3.7575 10.125 5.63625V13.5337C10.125 15.4012 11.6325 16.875 13.5 16.875Z" fill="#4285F4"/>
<path d="M12.375 20.34H14.625V24.75H12.375V20.34Z" fill="#34A853"/>
<path d="M7.93125 18.9788C6.5025 17.4825 5.625 15.795 5.625 13.5H7.875C7.875 15.1313 8.505 16.2225 9.52875 17.3025V17.6625L8.235 18.99L7.93125 18.9788Z" fill="#FBBC05"/>
<path d="M13.4999 19.0463C12.7599 19.0485 12.0268 18.8955 11.3432 18.5961C10.6595 18.2968 10.0389 17.8571 9.5174 17.3025L7.93115 18.9788C9.34865 20.4863 11.3287 21.375 13.4999 21.375C17.8537 21.375 21.3637 18.09 21.3637 13.5H19.1249C19.1249 16.785 16.6049 19.0463 13.4999 19.0463Z" fill="#EA4335"/>
</svg>
